<svg xmlns="http://www.w3.org/2000/svg" width="460.042" height="444.225" viewBox="0 0 460.042 444.225">
  <g id="Group_3347" data-name="Group 3347" transform="translate(56.082 -42.839)">
    <ellipse id="Ellipse_14" data-name="Ellipse 14" cx="230.021" cy="132.805" rx="230.021" ry="132.805" transform="translate(-56.082 221.455)" fill="#88ddf2"/>
    <ellipse id="Ellipse_15" data-name="Ellipse 15" cx="230.021" cy="132.805" rx="230.021" ry="132.805" transform="translate(-56.082 188.055)" fill="#b5ebf7"/>
    <g id="Group_3347-2" data-name="Group 3347" transform="translate(214.204 85.942)">
      <path id="Path_7783" data-name="Path 7783" d="M152.978,71.747V236.311l-44.924-25.937V45.81Z" transform="translate(-108.054 -19.873)" fill="#920f21"/>
      <path id="Path_7784" data-name="Path 7784" d="M197.9,61.7,152.978,87.635,108.054,61.7l44.924-25.937Z" transform="translate(-108.054 -35.762)" fill="#e92f47"/>
      <path id="Path_7785" data-name="Path 7785" d="M125.458,71.747V236.311l44.924-25.937V45.81Z" transform="translate(-80.534 -19.873)" fill="#f38997"/>
    </g>
    <g id="Group_3348" data-name="Group 3348" transform="translate(156.444 142.704)">
      <path id="Path_7786" data-name="Path 7786" d="M130.6,93.736v140.72L85.678,208.52V67.8Z" transform="translate(-85.678 -41.863)" fill="#920f21"/>
      <path id="Path_7787" data-name="Path 7787" d="M175.525,83.688,130.6,109.625,85.678,83.688,130.6,57.752Z" transform="translate(-85.678 -57.752)" fill="#e92f47"/>
      <path id="Path_7788" data-name="Path 7788" d="M103.081,93.736v140.72l44.924-25.937V67.8Z" transform="translate(-58.158 -41.863)" fill="#f38997"/>
    </g>
    <g id="Group_3349" data-name="Group 3349" transform="translate(98.685 191.462)">
      <path id="Path_7789" data-name="Path 7789" d="M108.225,112.626V237.5L63.3,211.568V86.689Z" transform="translate(-63.301 -60.752)" fill="#920f21"/>
      <path id="Path_7790" data-name="Path 7790" d="M153.148,102.578l-44.924,25.937L63.3,102.578l44.924-25.937Z" transform="translate(-63.301 -76.641)" fill="#e92f47"/>
      <path id="Path_7791" data-name="Path 7791" d="M80.7,112.626V237.5l44.924-25.937V86.689Z" transform="translate(-35.781 -60.752)" fill="#f38997"/>
    </g>
    <g id="Group_3350" data-name="Group 3350" transform="translate(40.924 255.044)">
      <path id="Path_7792" data-name="Path 7792" d="M85.848,137.257v94.215L40.924,205.536V111.321Z" transform="translate(-40.924 -85.384)" fill="#920f21"/>
      <path id="Path_7793" data-name="Path 7793" d="M130.772,127.209,85.848,153.146,40.924,127.209l44.924-25.937Z" transform="translate(-40.924 -101.273)" fill="#e92f47"/>
      <path id="Path_7794" data-name="Path 7794" d="M58.328,137.257v94.215l44.924-25.937V111.321Z" transform="translate(-13.405 -85.384)" fill="#f38997"/>
    </g>
    <path id="Path_7795" data-name="Path 7795" d="M329.643,104.021l-17.995,3.223,3.416,1.972L52.262,260.945l4.957,2.862,262.8-151.729,3.416,1.972Z" transform="translate(17.927 158.116)" fill="#31c3ea"/>
    <g id="Group_3351" data-name="Group 3351" transform="translate(53.368 42.839)">
      <path id="Path_7796" data-name="Path 7796" d="M72.291,49.11l5.217,2.356L80.1,57.292,79.019,63.98l-3.185,3.76h-6.74L66.375,51.682Z" transform="translate(-13.124 28.447)" fill="#ffb294"/>
      <path id="Path_7797" data-name="Path 7797" d="M78.481,96c-1.887,4.708-2.068,10.07,1.918,13.758,4.979.485,8.952-.121,11.342-2.442,7.437-.2,14.37-.759,18.448-3.371,4.791-1.951,7.37-5.991,8.991-10.929.576-2.168-1.446-5.506-5.485-5.116L95.713,89.6l-8.276-8.856L77.644,91.513Z" transform="translate(3.975 78.462)"/>
      <path id="Path_7798" data-name="Path 7798" d="M47.613,109.586c-1.613,5.792-2.372,11.5-1.5,17.039,3.087,1.647,6.262,2.315,11.058,2.274l5.15-2.468,7.166-1.688c6.205-2.739,7.875-10.9.356-11.83l-5.689-.188L59.8,101.77l-8.683.5Z" transform="translate(-45.745 111.717)"/>
      <path id="Path_7799" data-name="Path 7799" d="M45.865,170.489c4.863,4.688,15.307,5.217,18.11,3.085l7.31-33.9,5.872-27.245,5.978-39.483.377-2.491L76.5,68.521,57.566,63.289c-.39,4.837-.95,10.292-1.466,16.223a269.753,269.753,0,0,0-1.185,30.059C49.241,132.8,45.645,148.231,45.865,170.489Z" transform="translate(-45.571 50.869)" fill="#2a3d4f"/>
      <path id="Path_7800" data-name="Path 7800" d="M53.748,84.409c4.339,9.158,26.45,5.5,51.468,6.012-.963,13.224,2.39,27.338,8.59,42.036,8.288,4.507,16.641-.95,19.238-8.952-2.426-11.943-7.1-30.655-8.26-48.169a9.311,9.311,0,0,0-6.309-8.247L75.348,60.148C47.274,64.466,67.049,82.368,53.748,84.409Z" transform="translate(-33.091 45.902)" fill="#2a3d4f"/>
      <path id="Path_7801" data-name="Path 7801" d="M54.307,89.61c.121,10.738-4.1,27.186-4.1,27.186s.643,4.77,8.221,10.333a50.376,50.376,0,0,0,8.609,4.99c12.78,5.95,30.049,4.525,38.456-7.522a27.274,27.274,0,0,0,4.267-10.175s-8.849-16.182-8.2-28.908c.79-15.575,1.409-23.536-3.023-31.071,0,0-13.962-14.2-21.213-18.4C64.015,28.331,56.248,32,56.248,32s-8.725,4.853-8.629,19.2C47.67,59.427,54.183,78.872,54.307,89.61Z" transform="translate(-42.785 0.013)" fill="#3b5770"/>
      <path id="Path_7802" data-name="Path 7802" d="M51.806,99.3a50.375,50.375,0,0,0,8.609,4.99c12.78,5.95,30.049,4.525,38.456-7.522l-.7-1.327c-12.3-13.27-9.458-26.184-4.13-46.54l-22.029-.181A136.466,136.466,0,0,0,51.806,99.3Z" transform="translate(-36.162 27.837)" fill="#2a3d4f" opacity="0.3" style="mix-blend-mode: multiply;isolation: isolate"/>
      <path id="Path_7803" data-name="Path 7803" d="M73.4,75.433,69.626,88.6l-2.963,4.832L61.211,97.01h-5.5l-2.752-1.133L49.29,94.259c-1.882-1.177-.754-2.375.648-1.944-.478-1.314-.222-1.9,1.154-1.278l2.677,1.871,4.639-1.079s.8-5.663,1.941-8.144a28.117,28.117,0,0,1,4.1-5.663L66.174,69.5,74.7,71.657Z" transform="translate(-41.707 60.688)" fill="#ffb294"/>
      <path id="Path_7804" data-name="Path 7804" d="M92.009,63.749l-24.682,61.46c-2.1,4.016-11.8,1.082-14.236-4.819L71.057,59.965C75.427,42.65,81.9,37.794,86.916,39.735,92.659,45.061,96.3,52.358,92.009,63.749Z" transform="translate(-34.13 12.991)" fill="#3b5770"/>
      <path id="Path_7805" data-name="Path 7805" d="M69.872,50.295l6.254-3.676c2.857-1.507,3.967-6.915,4.414-10.89l.94-8.337-1.412-5.3L60.621,21.031,55.647,34.02l2.308,12.927Z" transform="translate(-30.088 -15.953)" fill="#ffb294"/>
      <path id="Path_7806" data-name="Path 7806" d="M73.11,44.215l-.039-10.792L60.8,28.769l-5.736,6.386C58.5,40.805,65.113,43.216,73.11,44.215Z" transform="translate(-31.01 -3.717)" fill="#ffb294"/>
      <path id="Path_7807" data-name="Path 7807" d="M79.61,45.937l-3.492-5.849c-8.345-1.319-16.365-5.885-17.764-9.336l-4.6,1.647,8.585,8.965Z" transform="translate(-33.091 -0.583)" fill="#e6e6e6"/>
      <path id="Path_7808" data-name="Path 7808" d="M88.3,52.752S69.678,48.6,58.658,40.925c-5.583-3.89-6.151-7.4-6.151-7.4.315-1.231,3.317-2.816,5.508-2.661,1.2,6.624,16.964,12.233,23.126,13.65Z" transform="translate(-35.053 -0.426)" fill="#2a3d4f"/>
      <path id="Path_7809" data-name="Path 7809" d="M82.656,31.865l-5.005,3.993a4.222,4.222,0,0,0-1.531,2.6l-.692,4.133-2.741,2.075-.134,4.2s-4.724,5.255-12.3,1.727c-5.276-2.457-4.344-3.371-5.261-13.028-.576-6.081-.16-11.975,5.885-16.177,5.506-3.825,16.533-2.69,20.464,1.66C83.4,25.317,84.669,29.31,82.656,31.865Z" transform="translate(-31.418 -19.064)"/>
      <path id="Path_7810" data-name="Path 7810" d="M61.959,28.5a5.562,5.562,0,0,0-.764,2.814,4.228,4.228,0,0,0,.511,2.6,1.81,1.81,0,0,0,2.336.681c1.069-.681,2.117-4.383,1.944-5.661C65.7,26.79,62.992,26.958,61.959,28.5Z" transform="translate(-21.336 -5.987)" fill="#ffb294"/>
    </g>
  </g>
</svg>
