<svg xmlns="http://www.w3.org/2000/svg" width="1534.208" height="781.262" viewBox="0 0 1534.208 781.262">
  <path id="Intersection_1" data-name="Intersection 1" d="M680.442,1440.058a77.36,77.36,0,0,0,9.856,3.082l3.736,6.471a9.376,9.376,0,0,1-4.263,2.093,12.765,12.765,0,0,1-2.471.234Zm-1.123,10.425-8-2.227L604.7,1332.865a62.441,62.441,0,0,1,1.055-12.164l55.586,96.278c.068,6.99,4.387,13.943,10.169,18.217q.3.219.6.432l8.832,15.3C680.4,1450.782,679.855,1450.633,679.319,1450.483Zm-17.824-4.961a71.466,71.466,0,0,1-6.932-2.288l-32.15-55.686a48.273,48.273,0,0,0-2.444-12.016c-1.651-4.27-4.44-7.985-6.773-11.924a62.4,62.4,0,0,1-7.1-18.321l58.343,101.053Zm-24.311-16.637a18.225,18.225,0,0,0-.945-7.377l10.138,17.56A25.555,25.555,0,0,1,637.185,1428.885Zm-29.7-115.192q.29-.937.61-1.868c.775-2.2,1.68-4.384,2.6-6.563l46.8,81.053c-1.6,3.14-2.2,7.194.2,9.676,1.654,1.708,4.34,2.2,5.807,4.068,2.1,2.678.67,6.228-.612,9.6Zm1123.724,74.348a36.381,36.381,0,0,0,6.272-3.128l5.795,10.037a25.539,25.539,0,0,1-7.43,1.122Zm-5.02,6.816c-1.5-1.073-2.136-3.533-.752-4.755l.991-.335,3.626,6.28A9.346,9.346,0,0,1,1726.189,1394.857Zm15.267-13.069c1.766-1.621,3.431-3.375,5.236-4.919l6.438,11.151q-.3.24-.6.486a45.188,45.188,0,0,1-4.857,4.058Zm9.371-7.766a43.639,43.639,0,0,1,6.434-2.307c.085-.028.172-.057.261-.089l5.848,10.129a68.474,68.474,0,0,0-6.133,3.37Zm-112.448,7.241,1.371,2.375-1.489.843Q1638.285,1382.87,1638.38,1381.263ZM613.105,1299.427a47.273,47.273,0,0,0,2.726-9.269L659.1,1365.1q-.35.144-.7.278a10.152,10.152,0,0,1,1.5,1.1l3.221,5.578a10.121,10.121,0,0,1,.031,3.872,16.4,16.4,0,0,1-2.623,5.628Zm1026.252,73.522a71.947,71.947,0,0,1,2.443-9.761l8.4,14.541-6.089,3.445Zm122.641-3.58c1.969-1.119,4.122-2.384,6.162-3.318l5.972,10.344a19.477,19.477,0,0,1-4.655,2.528q-.779.349-1.559.7Zm-112.294-2.5a15.985,15.985,0,0,0,4.029-.946c.956-.346,1.9-.745,2.85-1.129l4.007,6.941c-.723.5-1.477.95-2.208,1.363l-3.83,2.167Zm123.446-2.185a4.21,4.21,0,0,1,.847.1c4,.93,4.886,4.308,3.538,7.492Zm-111.665-1.408q.381-.058.767-.091a2.7,2.7,0,0,1,1.409.166,2.389,2.389,0,0,1,1.112,2.176,5.229,5.229,0,0,1-.57,2.458Zm-13.7.267q1.652.753,3.345,1.414l-2.307.383ZM615.5,1279.573c-2.52-10.811-10.873-20.265-13.032-31.4-.429-2.211-.625-4.517-.932-6.776l67.1,116.225a10.368,10.368,0,0,1-1.421,2.1,25.229,25.229,0,0,1-3.7,3.023Zm1175.345,67.757a36.3,36.3,0,0,0,5.049-5.247l10.6,18.365a14.768,14.768,0,0,1-7.16,1.591Zm-2.918,12.334c-2.141-2.047-1.859-5.451-.46-8.177l5.866,10.16A9.772,9.772,0,0,1,1787.926,1359.664Zm10.377-23.416a45.309,45.309,0,0,0,.718-8.917,16.784,16.784,0,0,1,5.135,13.75l1.676.189c-.923,1.639.727,3.662,2.526,4.206a18.81,18.81,0,0,0,3.63.485l3.232,5.6a6.541,6.541,0,0,1-1.281.716c-1.685,1.047-2.667,2.833-3.777,4.512Zm-141.925,18.18-72.389-125.381q2.071-1.927,4-4.018.539-.587,1.073-1.189l76.159,131.912q-.354.1-.723.178a9.337,9.337,0,0,1-1.878.189A14.508,14.508,0,0,1,1656.377,1354.429Zm-63.847-134.586c1.61-1.858,3.244-3.7,4.972-5.381l76.757,132.947a35.44,35.44,0,0,1-4.723,5.811ZM670.09,1350.128,546.058,1135.3a17.257,17.257,0,0,1,.111-1.866,14.937,14.937,0,0,1,2.881-6.942l129.085,223.581a20.524,20.524,0,0,1-3.777.318A39.62,39.62,0,0,1,670.09,1350.128Zm971.6-1.375a21.981,21.981,0,0,0-2.25.344l-64.979-112.547q2.931-1.942,5.674-4.162l67.928,117.656A13.24,13.24,0,0,0,1641.695,1348.754ZM552.519,1122.488c1.671-1.68,3.487-3.3,5.216-4.955l128.7,222.912a10.27,10.27,0,0,1-2.277,6.406,8.711,8.711,0,0,1-1.363,1.28Zm1048.849,88.659a22.293,22.293,0,0,1,6.187-3.272l75.653,131.034a13.28,13.28,0,0,0-5.676,4.158Zm11.361-4.321a35.013,35.013,0,0,0,7.318-1.318l75.635,131c-1.828,1.272-4.48,1.4-7.165,1.582Zm11.723-3.7c1.906-1.364,3.677-2.99,5.512-4.445l68.295,118.29a7.463,7.463,0,0,0-2.577,4.858c-.242,2.551,1.014,5.147,1.717,7.644Zm-90.094,124.954-4.362-.557-10.96-18.984q1.433-4.622,2.718-9.284l16.911,29.292C1537.224,1328.448,1535.782,1328.267,1534.358,1328.085Zm-10.795-35.7q1.245-4.962,2.324-9.965l25.05,43.389a34.806,34.806,0,0,1-4.552,2.1,15.523,15.523,0,0,1-2.037.475Zm-8.526,33.234-1.125-1.949q1.593-4.328,3.055-8.7l6.792,11.763Zm97.126.228-.622-1.078a13.963,13.963,0,0,0-4.364-7.558l-43.223-74.865q3.2-1.438,6.246-3.173l50.365,87.234A12.944,12.944,0,0,0,1612.163,1325.846ZM1023.411,1266.1c-.26-4.465.077-9.036.268-13.529l42.229,73.143q-3.879.4-7.792.5Zm23.811,58.644c-5.257-3.069-5.328-10.4-6.562-16.366a34.7,34.7,0,0,0-1.349-4.73l13.012,22.538A14.931,14.931,0,0,1,1047.222,1324.742Zm-23.722-82.49a24.578,24.578,0,0,0-3.741-10.971c.867-1.66,1.737-3.336,2.581-5.03l56.183,97.312q-3.593.857-7.246,1.442Zm-462.167-128.5a16.982,16.982,0,0,0,3.845-7.333L689.6,1321.93q-3.5-.06-7-.225a17.578,17.578,0,0,0,.216,2.466Zm966.055,161.258q.414-2.18.8-4.366c.355-2.028.721-4.116,1.2-6.165l31.944,55.328q-3.142,1.532-6.148,3.343Zm-502.458-54.285a60.417,60.417,0,0,0,3.069-8.673l62.3,107.9q-3.343,1.259-6.767,2.27ZM564.6,1095.407a29.753,29.753,0,0,1-.524-9.39c.581-3.658-2.974-6.81-6.586-7.632a17,17,0,0,0-2.938-.381l-5.25-9.094c.887.163,1.769.344,2.634.585a19.477,19.477,0,0,1,8.934,5.461l142.489,246.8q-3.978.169-7.961.2Zm3.6-17.77a17.517,17.517,0,0,0,6.16-3.32L716.662,1320.8q-3.847.387-7.7.646Zm461.054,126.57q.05-1.037.034-2.084c-.137-8.366-3.579-16.2-7.022-24.011L1101.292,1315c-.689.38-1.383.74-2.073,1.083q-2.1,1.038-4.24,1.974Zm502.24,53.906a16.617,16.617,0,0,1,4.5-6.014l.07-.057,36.549,63.3q-3.4,1.051-6.69,2.4Zm102.67-62.172a11.917,11.917,0,0,1,3.233-1.041q2.071-.17,4.151-.159l67.227,116.44q-.626.33-1.269.632c-1.617.759-3.393,1.517-5.066,2.384Zm-93.753,53.614a43.209,43.209,0,0,1,6.943-1.963l37.531,65.006q-3.677.521-7.279,1.381Zm49.954,62.525-37.913-65.667q3.476-.914,6.834-2.156l39.592,68.576A30.37,30.37,0,0,0,1590.359,1312.08Zm-575.042-156a30.612,30.612,0,0,1-.021-4.3,60.044,60.044,0,0,1,1.2-7.654l94.249,163.244a24.269,24.269,0,0,1-5.211,4.966Zm648.669,67.528a9.024,9.024,0,0,0,7.6-.832l46.664,80.825a33.987,33.987,0,0,1-5.249,4.9ZM577.851,1070.365a17.5,17.5,0,0,0,2.032-4.379,21.764,21.764,0,0,1,1.139-4.122L718.046,1299.2a20.691,20.691,0,0,1-5.1,5.159Zm439.741,65.653a32.421,32.421,0,0,0-5.333-18.72c-2.281-3.44-5.7-6.609-9.648-7.228L909.9,949.481c1.216-2.566,2.374-5.17,3.618-7.721l199.749,345.974c-.434,4.181,1.007,8.851.328,13.142q-.085.534-.21,1.051Zm657.609,83.015a45.841,45.841,0,0,0,3.083-8.652l46.935,81.294a38.7,38.7,0,0,1-3.715,7.557ZM584.437,1057.773a13.751,13.751,0,0,1,7.469-1.055l130.42,225.893a27.577,27.577,0,0,1-1.114,10.439c-.108.329-.228.663-.36,1Zm1095.754,145.9a71.225,71.225,0,0,1,3.052-8.7l26.2,45.377a48.393,48.393,0,0,0,5.983,10.363l10.932,18.935a35.422,35.422,0,0,1,.672,15.154Zm-763.9-267.112a41.822,41.822,0,0,1,4.482-6.23l200.985,348.116a15.6,15.6,0,0,0-6.015,3.574Zm8.209-9.781a21.346,21.346,0,0,1,5.921-3.335l.2-.06,201.991,349.859q-.176.168-.361.331a18.254,18.254,0,0,1-5.7,3.157ZM598.37,1057.9l9.346,2.2,119.25,206.547-1.241.713c-1.668.959-3.458,2.064-4.247,3.772ZM1177.358,1264.3c-2.169-3.168-2.092-7.422-.882-11.076l8.87,15.364A10.619,10.619,0,0,1,1177.358,1264.3ZM935.7,922.176a43.059,43.059,0,0,1,4.772-.561q1.4-.153,2.792-.326l193.383,334.95c.207,4.394.309,8.662-.992,12.27Zm243.262,325.345c1.238-2.369,2.65-4.669,4.05-6.978l13.811,23.921a21.131,21.131,0,0,1-6.12,3.392ZM614.4,1061.675l9.347,2.2,113.623,196.8-6.067,3.484Zm571.513,173.889a44.947,44.947,0,0,0,2.659-5.708c.291-.779.557-1.539.806-2.283l15.516,26.875a37.518,37.518,0,0,1-4.417,6.341ZM630.451,1065.472a51.189,51.189,0,0,1,10.089,3.484L747.779,1254.7l-6.067,3.484Zm24.519,18.468a12.02,12.02,0,0,0,1.607,1.249c2.542,1.642,5.542,2.107,8.595,2.43l92.74,160.63a16.3,16.3,0,0,1-4.239,3.063l-1.554.892Zm536.506,137.254a26.459,26.459,0,0,1,3.854-7.313l14.723,25.5a74.934,74.934,0,0,1-2.664,9.373ZM948.617,920.552q3.69-.559,7.353-1.256l183.5,317.836a19.54,19.54,0,0,0-1.978,4.269,22.422,22.422,0,0,0-.917,4.71ZM671.428,1088.446a30.277,30.277,0,0,1,10.856,4.811l12.756,22.093c.451,3.217,1.076,6.467,3.625,8.279a6.488,6.488,0,0,0,1.64.842l54.287,94.027a17.359,17.359,0,0,0,.066,3.874c.578,4.48,2.98,8.488,4.478,12.749a18.609,18.609,0,0,1,1.141,7.217ZM961.14,918.241q3.568-.777,7.106-1.685l179.629,311.127c-1.766,1.682-3.53,3.354-5.119,5.126Zm237.436,291.251c1.316-2.008,2.833-4.461,4.265-6.605l10.622,18.4-2,10.521ZM588.76,1225.34a77.016,77.016,0,0,1-7.036-4.267l-18.733-32.446c-.06-3.99-.15-7.952-1.788-11.537-2.382-5.211-7.5-8.473-11.9-12.173l-7.682-13.306a9.525,9.525,0,0,1,.32-2.142c.593-2.206,1.975-4.118,2.956-6.175l49.061,84.976C592.3,1227.195,590.5,1226.275,588.76,1225.34ZM1686.212,1190.1a5.813,5.813,0,0,1,2.746-1.8c2.646-.695,4.983,2.108,5.536,4.789s.14,5.557,1.163,8.094c1.629,4.031,6.261,5.9,9,9.274,3.741,4.619,3.271,10.785,3.1,16.95ZM973.244,915.2q3.454-.983,6.87-2.089l176.136,305.077a34.425,34.425,0,0,1-4.685,5.873Zm232.877,283.357a4,4,0,0,1,.854-.686c8.986-4.884,9.022,10.1,8.091,14.993l-.17.892ZM984.949,911.48Q988.293,910.3,991.6,909L1161.392,1203.1q-.354,1.6-.739,3.2a41.357,41.357,0,0,1-1.827,6.347Zm662.224,283.006a39.465,39.465,0,0,1,6.539-.677,11.463,11.463,0,0,1,1.2.092l6.027,10.439c-1.131,2.494-2.859,4.992-3.346,7.668q-.038.207-.068.411Zm-940.918-69.719.725-.074a24.27,24.27,0,0,1,4.938-.175,11.963,11.963,0,0,1,2.6.577l46.022,79.713a44.624,44.624,0,0,0-4.07,6.941Zm-140.82,78.1,3.68,6.374A33.4,33.4,0,0,1,565.435,1202.87Zm158.378-71.69c2.7,2.164,5.474,4.2,8.758,4.969a16.085,16.085,0,0,0,2.391.354l33.253,57.6c-1.394,2.13-2.931,4.206-4.458,6.269Zm272.5-224.015a28.126,28.126,0,0,1,4.363-.989,13.549,13.549,0,0,1,3.253.19l11.488,19.9a14.243,14.243,0,0,0,1.147,4.455,11.368,11.368,0,0,0,4.206,4.818l143.66,248.827q-.595,5.661-1.57,11.272Zm730.742,281.683-20.542-35.579a16.052,16.052,0,0,0,5.967,2.612,23.415,23.415,0,0,0,3.707.152l5.14,8.9c-.7-.024-1.331-.065-1.853-.113a25.234,25.234,0,0,0,15.35,23.491l.773,1.339a9.632,9.632,0,0,1-2.978.456A14.228,14.228,0,0,1,1727.057,1188.848ZM740.85,1136.688a11.967,11.967,0,0,1,5.117,1.292c4.381,2.417,5.765,8.229,9.776,11.22q.331.247.678.464l17.465,30.251a34.284,34.284,0,0,1-1.771,6.833c-.3.789-.643,1.567-1.014,2.334Zm967.714,38.79a17.963,17.963,0,0,0-3.672-1.022l-19.513-33.8a52.717,52.717,0,0,1,11.1,5.235l20.428,35.382A28.4,28.4,0,0,0,1708.564,1175.477Zm-112.208,2.989-2.115-3.664q4.783,1.165,9.522,2.5l.655,1.135q-2.108.125-4.212.123Q1598.279,1178.561,1596.355,1178.467Zm-14.869-1.756-3.04-5.266q4.58.834,9.129,1.822l2.721,4.713C1587.357,1177.656,1584.42,1177.216,1581.486,1176.71ZM1028.23,938.443c2.928.7,6.074,1.172,9.126,1.819l128.523,222.609q-.607,6.311-.77,12.655Zm537.65,235.239-2.981-5.163,9.079,1.734,3.034,5.255C1571.968,1174.911,1568.926,1174.284,1565.88,1173.681Zm111.037.321-20.374-35.288,1.408-.13c2.1-.2,4.2-.39,6.3-.518L1685.8,1175.4q-.4.01-.8.011A21.425,21.425,0,0,1,1676.917,1174Zm-6.969-36.069a52.72,52.72,0,0,1,8.617.934l20.381,35.3c-2.526.118-5.088.462-7.639.761Zm-116.975,33.509q-1.21-.166-2.421-.31l-3.087-5.347q4.487.589,8.929,1.473l3,5.2C1557.256,1172.081,1555.116,1171.736,1552.973,1171.442Zm-789.325-19.268c2.6.631,5.168,1.325,7.185,3.017,4.36,3.662,4.331,10.259,3.936,15.939l-.019.273Zm772.437,17.9-2.734-4.735a78.773,78.773,0,0,1,7.988-.154l3.087,5.347C1541.651,1170.313,1538.868,1170.165,1536.084,1170.072Zm-30.38-4.618a4.694,4.694,0,0,1,1.893-1.508,8.952,8.952,0,0,1,5.147-.291l3.742,6.481q-3.961.117-7.92.275Zm13.7-.263a43.314,43.314,0,0,0,8.332.44l2.5,4.323q-4.024-.033-8.052.044Zm202.1-9.948c1.775-.405,4.441-1.226,7.088-1.715l5.37,9.3a19.783,19.783,0,0,1-6.979,1.9Zm12.749-1.92a3.718,3.718,0,0,1,3.218,3.561,6.148,6.148,0,0,1-.1,1.847Zm-256.469-36.215a8.034,8.034,0,0,0,2.15-.245,7.227,7.227,0,0,1,3.352-.094,8.007,8.007,0,0,1,3.4,1.758l2.87,4.971a4.651,4.651,0,0,0-1.812,3.614,10.325,10.325,0,0,0,2.963,6.186c3.6,4.333,7.773,8.152,11.587,12.3l.055.06,2.906,5.033a4.583,4.583,0,0,1,.009,1.1c-.273,2.366-2.53,4.029-4.923,4.375ZM1044.337,942.342a15.972,15.972,0,0,1,5.476,3.738c1.544,1.667,2.8,3.853,4.972,4.512a4.291,4.291,0,0,0,2.4.012l112.487,194.832a67.442,67.442,0,0,0-2.684,9.343Zm447.09,209.841c-9.817-9.138-14.6-22.522-23.624-32.44a63.324,63.324,0,0,0-5.309-5.134l-12.4-21.479c2.19.134,4.391,1.971,5.977,3.746,3.964,4.438,8.281,11.2,13.356,15.751l23.742,41.122A13.244,13.244,0,0,1,1491.427,1152.184Zm165.292-1.663c-2.984-1.421-6.232-2.22-9.259-3.539l-4.574-7.922a55.275,55.275,0,0,0,8.124.081l6.936,12.013Q1657.343,1150.82,1656.719,1150.52Zm-127.9-41.037a6.639,6.639,0,0,1,2.6-.135,19.875,19.875,0,0,0,5.284-.2l20.311,35.18-6.1,2.788-.292.132Zm14.381,35.275c-2.917-4.963-8.7-7.1-13.7-10.1l-10.941-18.95c1.428-.548,3.1-.081,4.656.125a5.392,5.392,0,0,0,3.215-.483l18.344,31.773A7.793,7.793,0,0,1,1543.2,1144.759Zm-1.74-37.383a21.44,21.44,0,0,0,5.329-4.758l12.75,22.083a6.8,6.8,0,0,0-2.632,4.312c-.254,2.371,1.265,4.513,2.453,6.582a8.277,8.277,0,0,1,1.319,5.07ZM1061.071,947.327a6.574,6.574,0,0,0,.422-.972c.942-2.771.417-5.8-.12-8.677q1.2.186,2.42.372l112.085,194.137c-1.373,2.429-2.649,4.894-3.8,7.409Zm9.039-8.345c2.885.408,5.8.791,8.727,1.127l104.291,180.636c-1.49,2.153-2.935,4.325-4.312,6.521ZM1550.131,1098.4c.894-1.146,1.824-2.312,2.839-3.465a22.19,22.19,0,0,1,2.049-2.063l11.236,19.461c.139,2.568.1,5.071-1.224,7.212a9.726,9.726,0,0,1-1.592,1.9Zm-465.153-157.67c2.8.246,5.606.435,8.393.544l97.474,168.83q-2.293,3.067-4.532,6.143Zm-90.129,170.033c-4.455-.363-6.791-5.243-9.7-8.637a19.149,19.149,0,0,0-2.274-2.242l-80.01-138.581q.27-.332.533-.671a45.611,45.611,0,0,0,3.792-5.83L997.139,1110.6a9.841,9.841,0,0,1-1.776.186C995.192,1110.788,995.02,1110.781,994.848,1110.767Zm466.884-45.475c-1.077-6.8-2.015-13.623-3.615-20.253l12.453,21.569a37.567,37.567,0,0,0,2.587,13.9c4.235,10,14.764,18.5,14.025,28.863Zm3.061,15.309,15.317,26.529C1472.353,1100.685,1467.559,1090.73,1464.793,1080.6Zm-14.04,24.528a13.69,13.69,0,0,1-4.514-5.381,5.937,5.937,0,0,1-.163-3.566l5.6,9.7Q1451.214,1105.51,1450.753,1105.131ZM1099.211,941.388q2.88-.01,5.716-.162c.727-.04,1.459-.086,2.193-.132l91.537,158.548q-2.253,3.071-4.548,6.114ZM1559.4,1090.451a6.07,6.07,0,0,1,5.07,1.221c3.814,2.818,2.966,7.212,2.187,11.348Zm-594.049,3.077L893.906,969.789a69.05,69.05,0,0,0,5.4-4.636l75.241,130.321A51.068,51.068,0,0,0,965.347,1093.528Zm215.838-34.16a30.732,30.732,0,0,0,5.2-.345l2.5-.315,17.36,30.068c-1.408,2.162-2.872,4.3-4.371,6.417ZM959.09,1092.9l-8.359-.684L884.19,976.959q.238-.164.481-.321c1.718-1.284,3.468-2.542,5.207-3.816l69.331,120.084Zm-22.9-1.874L877.226,988.9a14.42,14.42,0,0,1,1.269-5.788,19.094,19.094,0,0,1,1.9-2.709l64.267,111.314Zm-14.544-1.19-43.658-75.617-.506-14.868,52.642,91.179Zm-14.543-1.19-7.827-13.557a28.343,28.343,0,0,0-5.6-13.265,61.04,61.04,0,0,0-5.407-5.8l-9.084-15.734a70,70,0,0,1-.577-7.887l-.257-7.546,37.23,64.484Zm685.833-12.1a14.548,14.548,0,0,0-.226-6.274c-1.56-4.835-7.158-7.092-9.94-11.343l-.046-.072-.574-.994c-2.063-3.99-2.017-8.957-4.306-12.873-2.307-3.944-6.714-6.359-8.83-10.409a11.544,11.544,0,0,1,1.018-11.7l3.49,6.045a11.108,11.108,0,0,0,1.409,5.371,9.779,9.779,0,0,0,2.888,2.071l17.678,30.619q.131,1.079.358,2.149a9.079,9.079,0,0,0,1.545,3.762,9.559,9.559,0,0,0,2.791,2.221l5.23,9.059a7.333,7.333,0,0,1-1.751,3.319q-.216.194-.448.372a6.815,6.815,0,0,1-2.995,1.305Zm-398.668-18.513,7.531-.949,11.391,19.729c-1.22,2.43-2.542,4.812-3.944,7.161ZM546.407,1078a22.248,22.248,0,0,1-6.584-1.5l-39.947-69.19a38.882,38.882,0,0,1,4.025-7.021l10.816,18.734a6.675,6.675,0,0,0-.031,5.335c1.01-.068,2.032-.1,3.056-.1l17.595,30.475a13.058,13.058,0,0,0,7.221,12.508l6.245,10.817-.45,0C547.7,1078.064,547.054,1078.048,546.407,1078Zm811.612-.347-24.8-42.948q-3.691-12.8-6.8-25.763l38.842,67.276a19.483,19.483,0,0,1-7.2,1.436Zm-9.441-3.368c-3.472-3.048-5.154-7.6-6.652-11.973q-1.034-3.019-2.035-6.047l11.486,19.894A12.979,12.979,0,0,1,1348.579,1074.287Zm-174.936-339.98q3.383-1.183,6.822-2.176l194.217,336.393a24.309,24.309,0,0,1-2.286,2.867,18.844,18.844,0,0,1-2.743,2.415Zm33.541,322.094,3.933-.5a8.153,8.153,0,0,1,3.863.008l3.634,6.294a16.577,16.577,0,0,1-.791,3.551q-.932,2.789-2.069,5.487Zm-686.9.112c-2.19-4.165-4.319-8.762-8.427-11.061a14.562,14.562,0,0,0-4.711-1.561l-14.088-24.4a13.623,13.623,0,0,0,1.156-1.237,24.455,24.455,0,0,0,3.177-5.248l33.172,57.455A52.928,52.928,0,0,1,520.278,1056.513ZM1498.2,1068.8c-4.348-.38-7.553-3.411-10.639-6.763l-204.4-354.024q3.863-.373,7.744-.58l208.646,361.386q-.274.016-.551.016Q1498.607,1068.833,1498.2,1068.8ZM1296.515,707.129a22.9,22.9,0,0,0,5.057-1.353,8.566,8.566,0,0,0,1.633-1.052l206.111,356.995a13.947,13.947,0,0,1-4.91,5.487ZM1185.47,730.793q3.568-.878,7.182-1.553l187.306,324.424a40.009,40.009,0,0,1-2.5,9.658Zm406.948,320.853c1.7.583,3.565.984,4.119,2.595a5.251,5.251,0,0,1-.3,3.088q-.09.319-.171.641ZM1270.267,709.663q3.729-.583,7.47-1.052l198.793,344.32a10.873,10.873,0,0,0-1.486-.356,3.878,3.878,0,0,0-2.506.248c-1.385.76-1.649,2.591-1.735,4.179Zm35.748-10.082a5.06,5.06,0,0,0-.146-1.369q-.285.067-.571.126l-5.463-9.461c2.628-.145,5.259-.258,7.888-.327l187.74,325.176a13.082,13.082,0,0,0-.386,4.843c.965,8.242,6.926,14.856,11.17,21.987,2.511,4.217,4.5,9,4.62,13.84ZM1112.794,940.912a20.8,20.8,0,0,1,6.909,1.191,15.948,15.948,0,0,1,2.57,1.24L1133.622,963l-6.4-.213a6.063,6.063,0,0,0,1.612,3.5,369.19,369.19,0,0,1,36.771,59.63c3.417,6.941,10.636,15.321,9.223,22.444Zm-588.951,83.909a21.128,21.128,0,0,1,10.359,4.817,16.308,16.308,0,0,1,1.412,1.581l2.265,3.923a16.247,16.247,0,0,1-.458,13.2Zm662.856,20.1-4.673-8.093c-1.415-5.838-5.824-11.146-9.653-16.72l-4.53-7.846a23.2,23.2,0,0,1-1.357-4.152c-.935-4.244-.451-8.756-1.785-12.893-1.933-5.991-7.248-10.111-11.608-14.65a57.5,57.5,0,0,1-15.62-34.9l57.357,99.345a25.455,25.455,0,0,1-3.908.31A21.946,21.946,0,0,1,1186.7,1044.922Zm11.228-316.555q3.772-.544,7.577-.867l175.39,303.785a112.254,112.254,0,0,0-.38,13.333Zm-60.412,207.366c.334-4.35.8-8.72-.191-12.943-1.215-5.2-5.518-10.226-10.849-9.991l-2.147.095-12.4-21.48,8.565.843,85.838,148.676a39.969,39.969,0,0,1-6.441,2.835Zm-646.038,105.03L395.545,874.6a24.938,24.938,0,0,0,1.8-1.9,20.01,20.01,0,0,0,2.746-4.214l72.482,125.543a123.945,123.945,0,0,0,2.684,15.256c1.19,5.42,3.267,11.809,8.643,13.183a8.327,8.327,0,0,0,4.91-.316l12.225,21.174C497.549,1043.1,494.154,1042.742,491.478,1040.763Zm1093.741-1.586c1.421.213,2.45.011,2.594-.894a29.284,29.284,0,0,0-.4,4.693Zm-458.6-146.317,2.223.219c2.048.2,4.148.391,6.238.448l81.054,140.39q-.732.649-1.478,1.28c-1.285,1.086-2.646,2.131-4.065,3.109Zm317.549,142.013L1257.7,711.9q3.642-.715,7.293-1.36l187.616,324.96a6.588,6.588,0,0,1-3.214.78A11.77,11.77,0,0,1,1444.169,1034.872Zm-978.908.019c-2.263-1.234-3.757-3.559-5.976-4.869a10.019,10.019,0,0,0-2.276-.961l-80.367-139.2a28.034,28.034,0,0,1,5.082-5.188l87.32,151.243A8.9,8.9,0,0,1,465.261,1034.891ZM385.809,881.738c1.945-1.3,3.926-2.562,5.812-3.925l90.434,156.636a28.419,28.419,0,0,0-6.365.739c-.387.074-.774.147-1.16.218Zm754.9,11.52a18.322,18.322,0,0,0,6.778-2.252l77.557,134.332c-1.71,1.7-3.412,3.409-5.144,5.083ZM449.82,1027.409c-4.81-1.816-7.7-6.629-10.215-11.113l-30.363-54.086a24.6,24.6,0,0,1-3.14-7.381c-.3-1.613-.295-3.343-.588-4.949l44.876,77.728Q450.1,1027.515,449.82,1027.409Zm1059.628-13.462,7.029,12.175c-1.946.245-4.743.965-6.4,1.048Q1509.5,1020.572,1509.448,1013.947Zm-298.369-286.8q2.306-.1,4.619-.109a6.617,6.617,0,0,1,.919-4.291l170.163,294.73a25.292,25.292,0,0,0-3.421,5.09q-.413.829-.749,1.68Zm-59.874,160.3c2.732-4.1,3.1-9.825-.708-12.776-2.552-1.975-6.488-2.524-9.063-4.148l-2.549-4.414c.061-3.489,3.206-7.246,1.169-10.093-1.538-2.152-4.883-1.719-7.131-.234l-76.336-132.218a58.145,58.145,0,0,1,7.564-.891L1205.3,967.146a18.023,18.023,0,0,0,1.81,5.527,14.625,14.625,0,0,0,3.962,4.469l23.016,39.865c-1.845,1.49-3.615,3.083-5.349,4.727ZM1327.7,689.138c2.952.289,5.882.685,8.775,1.207l184.963,320.365a20.316,20.316,0,0,0-4.943,5.43ZM507.448,996.424a15.834,15.834,0,0,1,5.632-3.165q.264-.081.533-.147l9.517,16.483c-1.268,1.219-2.672,2.35-3.966,3.489-.458.4-.911.837-1.347,1.3Zm711.122-16.3a12.623,12.623,0,0,0,5.122-.509,16.722,16.722,0,0,0,2.155-.875l18.361,31.8c-.973.5-1.952,1-2.9,1.528q-1.632.907-3.169,1.943Zm2.1-260.353.091-.022c4.368-.866,8.3,2.909,10.409,6.831s3.419,8.468,6.765,11.4a7.752,7.752,0,0,0,2.07,1.284l155.77,269.8q-.621.517-1.228,1.035c-1.395,1.186-2.8,2.386-4.151,3.641Zm92.785-31.292c2.743,0,5.481.07,8.2.212l182.032,315.289a12.2,12.2,0,0,0-5.589,4.313Zm-83.2,287.895a19.2,19.2,0,0,1,2.487-1.089,9.533,9.533,0,0,1,4.745-.376l4.348,7.53a11.1,11.1,0,0,0,.027,4.846c.821,2.516,3.252,3.774,5.7,5.07l5.651,9.788a10.667,10.667,0,0,1-2.658,4.23,16.238,16.238,0,0,1-2.02,1.658Zm126.825-260.335c.267.013.531.02.791.025q3.682.068,7.372.126l165.49,286.638q-2.618,2.42-5.362,4.7Zm-194.682,22.8q3.207-1.47,6.482-2.761l153.547,265.952c-1.28,2.469-3.136,4.6-5.148,5.072Zm83.577.76a4.7,4.7,0,0,0,3.109-3.059c1.268-4.081-2.983-7.563-6.516-9.968s-7.255-6.86-4.876-10.411l2.507-.554,165.644,286.9a29.248,29.248,0,0,0-6.086,3.446ZM519.509,993.313c4.561,1.328,8.348,5.183,7.584,9.8a8.522,8.522,0,0,1-.673,2.174Zm893.018,7.983a14.3,14.3,0,0,0-1.591.016l-165.6-286.833q3.592-.782,7.194-1.533l168.138,291.223A15.8,15.8,0,0,0,1412.527,1001.3Zm-41.465-285.049q4.031.021,8.058-.035l160.42,277.855q-2.5,2.644-5.077,5.2Zm-81.04,267.635L1151.7,744.3a17.259,17.259,0,0,0,2.56-1.381q1.8-.982,3.621-1.905l145.529,252.064A63.512,63.512,0,0,0,1290.022,983.882ZM401.7,981.006a462.767,462.767,0,0,1-25.106-52.378,40.391,40.391,0,0,1-2.448-9.089l31.773,55.032q3.134,8.3,6.506,16.509C407.39,990.317,404.181,985.449,401.7,981.006Zm983.116-264.941q3.922-.143,7.834-.424L1548.005,984.73q-2.433,2.763-4.907,5.493ZM402.095,861.946c1.145-7.754-1.523-16.181-7.635-21.177a22.62,22.62,0,0,1,1.2-3.954l79.614,137.9a32.442,32.442,0,0,0-2.624,9.445Zm996.05-146.792q3.5-.368,6.984-.9l.529-.082L1556.226,974.97c-1.5,1.984-3.109,3.9-4.739,5.781ZM1275.356,977.8q-1.644-.535-3.3-1.03L1136.545,742.052c.863-1.436,1.656-2.894,2.381-4.316a8.391,8.391,0,0,0,7.675,7.741l135.554,234.787C1279.909,979.358,1277.634,978.538,1275.356,977.8Zm-19.61-5.284-127.4-220.656a27.937,27.937,0,0,0,5.077-5.195l131.744,228.187C1262.04,974.031,1258.894,973.27,1255.746,972.512Zm-707.687-1.749-6.308-10.926a27.906,27.906,0,0,0-4.122-7.868q-.529-.63-1.115-1.2L406.159,724.986c3,.437,5.994.978,8.991,1.583l142.262,246.4a6.628,6.628,0,0,1-2.76.591A10.466,10.466,0,0,1,548.059,970.764Zm691.421-2.423L1115.958,754.4a12.6,12.6,0,0,0,2.26.507,12.363,12.363,0,0,0,5.753-.621l125.053,216.6C1245.827,970.087,1242.639,969.259,1239.48,968.341Zm171.472-255a53.6,53.6,0,0,1,7.684-.683L1562.942,962.6c-.229.76-.491,1.508-.782,2.239a37.243,37.243,0,0,1-2.8,5.55ZM398.525,831.763a22.641,22.641,0,0,1,1.806-2.12l8.692,11.035a3,3,0,0,0,2.052-1.169l72.411,125.42a22.442,22.442,0,0,0-2.768,2.166,21.9,21.9,0,0,0-2.493,2.714ZM421.75,727.989c2.39.54,4.778,1.1,7.165,1.661l2.165.508L559.267,952.185c.645,2.715,1.674,5.4,2.287,8.129a14.793,14.793,0,0,1-.539,8.89Zm809.4,237.656q-4.738-1.715-9.3-3.848L1084,723.033l8.169.156,13.2,22.863-.424.017q.545.579,1.1,1.162L1232.4,966.093Q1231.774,965.873,1231.145,965.645ZM402.891,815.325c.175-2.805-2.247-5.619-4.534-7.853L394,799.925a3.911,3.911,0,0,1,1.345-3.287c-2.565,1.294-4.8-2.479-4.676-5.35s.749-6.41-1.614-8.049a6.717,6.717,0,0,0-4.056-.77l-1.059.03-28.995-50.22c1.842-.791,3.769-1.433,5.662-2.055q.509-.184,1.019-.363l133.3,230.881a32.2,32.2,0,0,0-7,1.869Zm111.773,145.6L378.571,725.2q1.828-.368,3.667-.682,1.887-.264,3.777-.417L516.165,949.53c-2.905,3.052-3.532,8.321-.734,11.472Zm-14.258-.7L366.483,728.264q3.456-1.06,6.968-1.92L508.572,960.38A77.331,77.331,0,0,0,500.405,960.225Zm569.518-237.567q1.113.053,2.226.149l6,.115,135.44,234.59q-2.735-1.568-5.381-3.289a18.032,18.032,0,0,0-2.137,4.256Zm465.629,182.5c2.9-.8,6.311.881,8.315,3.306,2.337,2.833,3.441,6.463,5.278,9.643,2.478,4.29,6.423,8.1,6.769,13.039a42.569,42.569,0,0,0,.094,5.608c.615,3,3.146,5.146,4.9,7.65a18.371,18.371,0,0,1,3.151,10.131Zm64.007,38.864c.166-2.471.081-4.851-1.283-6.853-1.13-1.658-3.127-3.106-2.857-5.094a4.891,4.891,0,0,1,1.2-2.268q.809-1.014,1.655-2l8.638,14.962c-.484,2.926-.634,6.2-2.016,8.7a5.007,5.007,0,0,1-.566.817ZM373.426,908.291c-.008-3.169.071-6.389.065-9.682a12.6,12.6,0,0,1,.464-3.391L403.042,945.6c-2.085-1.491-5.107-1.666-7.792-1.677q.788,2.473,1.6,4.937Zm18.232-184.422c2.763-.01,5.53.127,8.3.377L528.2,946.379a13.236,13.236,0,0,0-7.787.5Zm46.082,7.816c3.055.678,6.106,1.313,9.152,1.861l117.2,203a17.478,17.478,0,0,0-4.468,6.253ZM1601.847,923.977a68.11,68.11,0,0,1,5.325-4.766l6.679,11.568c-.059,1.391.431,2.9-.4,3.994-.644.849-1.814,1.038-2.778,1.487a5.386,5.386,0,0,0-1.266.815ZM453.249,734.548c2.849.379,5.7.655,8.533.79L574.174,930.007a53.613,53.613,0,0,0-6.093,3.436Zm14.352.858a66.115,66.115,0,0,0,7.707-.643L584.925,924.626a66.248,66.248,0,0,1-6.194,3.264ZM1611.212,916.2q2.59-1.786,5.346-3.331.32-.147.632-.307l8.5,14.723a37.542,37.542,0,0,1-5.07.132,18.1,18.1,0,0,0-2.894.067Zm10.049-6.594q.2-.2.39-.4a13.342,13.342,0,0,0,2.15-4.85c.278-1,.531-2.021.743-3.055l12.87,22.292a8.577,8.577,0,0,1-3.9,2.106q-1.263.4-2.548.709Zm-39.6,14.032c-3.85-.267-6.707-3.713-8.349-7.206s-2.62-7.385-5.088-10.352a16.737,16.737,0,0,0-7.191-4.8L1457.8,722.49a10.038,10.038,0,0,0,2.9-1.36,7.857,7.857,0,0,0,2.594-3.123l118.729,205.645C1581.9,923.65,1581.78,923.645,1581.657,923.637ZM1464.218,709.6a20.138,20.138,0,0,1,6.179-3.289L1573.909,885.6a8.508,8.508,0,0,0,.134,1.063,8.361,8.361,0,0,0,.238.946c1.232,4.018,3.985,7.306,6.826,10.458l9.042,15.661a10.7,10.7,0,0,1-3.422,8.066Zm-983.7,24.176q.412-.1.824-.2c2.053-.52,4.08-1.158,6.109-1.782L593.876,916.13a19.614,19.614,0,0,1-4.837,5.613ZM1624.873,891.86a14.068,14.068,0,0,0-1.692-4.549,55.937,55.937,0,0,0-3.84-5.032l-1.939-3.358a7.46,7.46,0,0,1-.374-1.549c-.368-2.854,1.212-5.306,3.584-6.881l10.206,17.678a95.292,95.292,0,0,1,8.025,27.89ZM1068.5,912.192l-8.728-15.118c.533-3.543,2.261-7.144,1.026-10.487-1.039-2.809-3.858-4.482-6.479-5.93l-5.91-3.266-43.26-74.929c2.7-.2,5.67,1.147,7.92,2.875,1.2.922,2.346,1.956,3.517,2.942l60.436,104.678a15.012,15.012,0,0,1-8.52-.765Zm41.928.623-13.046-22.6a26.236,26.236,0,0,1,4.026.161l4.4.432,12.854,22.265c-.554.008-1.11.013-1.666.013C1114.787,913.089,1112.58,913.016,1110.427,912.814Zm-17.858-8.952c-2.276-3.7-3.267-9.113.008-11.955l11.437,19.81C1099.26,910.446,1095.172,908.09,1092.568,903.862Zm-162.895,6.692q-.34.019-.678.009l-5.957-10.318,1.455-11.468,12.416,21.506a56.774,56.774,0,0,1-5.734.291C930.673,910.574,930.174,910.568,929.674,910.554Zm95.025-98.226a17.71,17.71,0,0,0,7.342-1.276l45.5,78.809c-1.99,5.7,3.624,13.128,3.405,19.89Zm-98.559,69.29a6,6,0,0,1,1.547-1.87,7.232,7.232,0,0,1,4.671-1.352L949.219,907.6a53.767,53.767,0,0,1-6.991,1.884ZM492.4,730.366a38.241,38.241,0,0,1,4.818-.922q1.307-.156,2.611-.2L600.1,902.913l-.028.018a9.924,9.924,0,0,0-3.639,3.42,15.871,15.871,0,0,0-.759,2.887Zm494.777,88.98a7.957,7.957,0,0,1,2.144-.3,14.861,14.861,0,0,0,4.853-1.57l49.41,85.58a13.834,13.834,0,0,1-4.978,5.37Zm-48.805,59.466q.269.005.535,0a14.2,14.2,0,0,0,6.452-1.893L960.017,902.3a44.888,44.888,0,0,1-6.107,3.414Zm486.4-165.528a51.842,51.842,0,0,1,10.165,3.615l101.406,175.64a15.134,15.134,0,0,0-2.845,9.064Zm-918.991,16.26a56.38,56.38,0,0,1,9.3,2.109l95.062,164.652q-2.937,1.916-5.859,3.844ZM1544.533,896.707,1442.7,720.333a42.421,42.421,0,0,0,6.679,2.144,22.888,22.888,0,0,0,2.9.455l101.84,176.391A67.958,67.958,0,0,1,1544.533,896.707ZM949.241,873.631a14.206,14.206,0,0,0,2.581-4.781,16.017,16.017,0,0,0,.571-3.749l16.651,28.841a36.407,36.407,0,0,1-5.014,5.3Zm89.672,11.317a19.6,19.6,0,0,1,4.695,5.3,13.852,13.852,0,0,1,1.526,5.479ZM522.309,734.163c1.315.495,2.628,1,3.939,1.51,2.144.83,4.284,1.66,6.417,2.435l87.589,151.709q-2.963,1.864-5.906,3.762ZM946.519,844.917a4.943,4.943,0,0,1,1.1-.308c1.966-.571,3.964-1.022,5.973-1.43l22.466,38.912-.019.027a71.274,71.274,0,0,0-3.944,7.1Zm-406.743-104.5a45.693,45.693,0,0,0,9.017,1.628l81.7,141.51q-3.01,1.781-5.99,3.616Zm497.009,68.844a22.938,22.938,0,0,1,7.114-1.666l44.059,76.313a20.555,20.555,0,0,0-6.963,1.928Zm13.164-1.2a9.234,9.234,0,0,0,3.594-.442,8.957,8.957,0,0,0,3.075-2l42.006,72.757a6.361,6.361,0,0,1-.359.836,7.66,7.66,0,0,1-5.1,3.706Zm583.272,74.255-7.851-13.6a9.854,9.854,0,0,1,4.1.292q2.587,1.086,5.261,1.939l5.689,9.854a14.314,14.314,0,0,1-6.948,1.513ZM554.5,741.915a26.552,26.552,0,0,0,5.492-1.258c1.959-3.594-3.2-6.9-7.276-7.311-1.092-.111-2.28-.254-3.442-.483l-5.59-9.682c.427-1.637.6-3.134-.636-4.152a4.922,4.922,0,0,0-2.207-.773l-4.283-7.418a28.448,28.448,0,0,1,6.381-2.94l42,72.749a25.788,25.788,0,0,0-1.639,3.725,9.059,9.059,0,0,0-.254,6.3,9.959,9.959,0,0,0,3.721,3.982,53.852,53.852,0,0,0,9.312,5.293l44.855,77.69q-3.075,1.664-6.113,3.4Zm456.466,134.606a29.593,29.593,0,0,0-6.091-2.533l-24.365-42.2a15.725,15.725,0,0,0,3.11-6.3c.125-.545.233-1.119.355-1.69l32.7,56.644A37.859,37.859,0,0,0,1010.964,876.522ZM1475.533,705.2a36.9,36.9,0,0,1,8.089.02l98.845,171.205c-.575.137-1.148.261-1.711.376a8.4,8.4,0,0,0-4.651,2.594ZM958.792,842.174c2.4-.465,4.794-.963,7.142-1.622l19.693,34.109a22.308,22.308,0,0,0-6.017,3.57Zm681.646,28.645c1.722-.408,3.12-.505,4.081,1.875a5.317,5.317,0,0,1-.535,4.266ZM615.847,824.177a10.536,10.536,0,0,0,5.21-3.7q.208-.281.4-.571l30.173,52.262q-3.158,1.511-6.275,3.122Zm874.183-117.87a70.9,70.9,0,0,1,7.776,2.293q1.036.368,2.066.762l92.16,159.627a13.369,13.369,0,0,1-.508,1.72,8.6,8.6,0,0,1-4.229,4.068ZM970.75,838.884a28.5,28.5,0,0,0,6.053-3.5l21.613,37.435a30.137,30.137,0,0,0-7.839.412Zm57.31,27.263-29.881-51.756a14.882,14.882,0,0,0,3.723-7.54l38.019,65.85ZM624.238,814.71a24.427,24.427,0,0,1,3.189-5.309,14.5,14.5,0,0,1,1.135-1.191l34.109,59.078q-3.264,1.322-6.479,2.768Zm435.945-12.921q.188-.191.381-.376a7.979,7.979,0,0,1,6.121-2.355l35.21,60.985a6.351,6.351,0,0,0-3.359,2.967,7.6,7.6,0,0,0-.764,3.884Zm-427.537,3.483c2.005-1.16,4.159-2.15,6.21-3.236l35.266,61.083q-3.4,1.094-6.73,2.336ZM1079.417,787.1a26.061,26.061,0,0,0,6.624-2.519l43.119,74.685a12.626,12.626,0,0,1-2.995,2.329,8.769,8.769,0,0,1-3.2.935Zm32.429,73.13a20.382,20.382,0,0,0-4.57-.88l-39.613-68.613-.508-3.763a26.088,26.088,0,0,0,6.868.79l42.724,74C1115.088,861.309,1113.437,860.732,1111.846,860.234Zm-435.809-3.806c.24.146.476.294.7.446,1.458.98,2.576,3.058,2.162,4.516Zm887.756-46.361a19.03,19.03,0,0,0,3.129.605c2.006.38,4.018.794,6.021,1.252l18.5,32.048q.534,7.635.75,15.29Zm-860.42,45.709-5.836-10.107a13.361,13.361,0,0,1,3.574-6.07c.214-.2.434-.4.66-.589l11.007,19.065A25.954,25.954,0,0,1,703.373,855.775Zm2.241-20.118q.208-.246.4-.508c1.29-1.8,1.522-4.689-.3-5.949a5.776,5.776,0,0,0-3.644-.619l-.524.03-34.278-59.372a12.9,12.9,0,0,1,5.3-1.587,8.552,8.552,0,0,1,1.951.159l49.059,84.972a12.763,12.763,0,0,1-5.526,4.422Zm888.058,2.16-13.931-24.128a80.535,80.535,0,0,1,10.227,3.723l21.719,37.618Zm4.743-15.785q1.963,1.306,3.807,2.8c8.44,6.866,14.413,17.54,14.1,28.208Zm-931.5,18.6c3.191.313,6.2,3.4,5.707,6.689a16.387,16.387,0,0,1-.579,2.192Zm56.573,1.985a8.563,8.563,0,0,1,1.087,1.591,7.137,7.137,0,0,1,.462,1.092ZM643.1,799.387a13.886,13.886,0,0,0,3.314-3.561,12.7,12.7,0,0,0,1.232-2.559l23.271,40.307-.871.237a10.992,10.992,0,0,0-5.221,3.2Zm991.457-10.746a15.015,15.015,0,0,0-4-8.463,9.163,9.163,0,0,0-1.607-1.244L1599.2,727.387c2.529.006,5.058,0,7.574.029l.525.008,58.953,102.109a12.81,12.81,0,0,1-2.057,4.5,5.7,5.7,0,0,1-2.246,2.035ZM956.392,832.992a15.032,15.032,0,0,1-3.237-.58l-3.114-5.394c.691-1.658,2.145-3.209,2.469-5.025.587-3.294-2.615-6.069-3.115-9.375a7.941,7.941,0,0,1-.079-.847l11.9,20.61-.1.069a8.4,8.4,0,0,1-3.281.668A8.3,8.3,0,0,1,956.392,832.992Zm-307.685-47.9c.007-3.516-.207-7.128.5-10.514a3.582,3.582,0,0,1,.564-1.63l33.411,57.869q-3.623.66-7.213,1.495ZM1652.4,830.082c-2.842-2.937-6.921-4.082-10.859-5.356l-9.9-17.14c.246-.55.492-1.1.723-1.645a32.735,32.735,0,0,0,2.125-7.413l18.768,32.507C1652.973,830.7,1652.687,830.381,1652.4,830.082ZM918.751,820.82a29.829,29.829,0,0,1,3.549-7.841l10.005,17.33-.11.014q-3.806.464-7.642.547ZM655.614,773.054c2.462.734,4.847-.162,7.257-1.422l33.143,57.405q-3.787.362-7.552.911ZM925.56,808.615l.071-.072A11.6,11.6,0,0,1,931.9,805.6l6.755,11.7a3.712,3.712,0,0,1-.412.454,7.921,7.921,0,0,0-1.959,2.806c-.671,2.384,1.63,4.973.68,7.262a2.906,2.906,0,0,1-.142.294Zm-521.6,18.962c-2.1-1.578-3.93-4.174-3.6-6.632l4,6.92Q404.154,827.723,403.96,827.577Zm539.351-36.218q.118,0,.237,0a25.706,25.706,0,0,1,8.114.477l7.576,13.121a10.914,10.914,0,0,0,2.335,5.015q.746.726,1.431,1.509l2.141,3.709a9.865,9.865,0,0,1,.348,2.524,27.663,27.663,0,0,1-1.234,9.93ZM686.067,777.8c.616.723,1.241,1.421,1.882,2.069a22.784,22.784,0,0,0,10.852,6l18.661,32.322c-.973,2.391-2.7,4.75-3.95,7.148Zm943.791,36.7,3.587,6.212A9.114,9.114,0,0,1,1629.858,814.5ZM1613.174,727.6q4.194.179,8.375.517l36.736,63.629c-2.835-.667-5.45-.93-7.248,1.167a101.473,101.473,0,0,1,11.948,19.1,44.88,44.88,0,0,1,2.4,6.027ZM603.869,803.43q1.074.61,2.11,1.286a15.124,15.124,0,0,1,5.628,12.117Zm-317.013,2.918c2.483-4.875-.451-11.894-5.845-13.252l4.574-2.939,7.174,12.426a27.736,27.736,0,0,1-5.631,4.237Zm653.489-10.115,3.442,5.963A7.872,7.872,0,0,1,940.346,796.232Zm-635.426-30.6q3.4-1.14,6.855-2.117l19.5,33.781a7.969,7.969,0,0,1-4.34,3.389,10.332,10.332,0,0,1-1.589.332Zm9.678,33.108a49.778,49.778,0,0,0-5.574-2l-15.464-26.784q3.252-1.39,6.562-2.624l19.085,33.055A45.061,45.061,0,0,1,314.6,798.743Zm1192.852-86.266c3.52,1.51,7.031,3.04,10.591,4.352l45.467,78.751q-1.482.784-2.919,1.655a8.988,8.988,0,0,0-3,2.089ZM289.8,787.448l5.892-3.786,7.258,12.571q-.333.051-.664.123a14.259,14.259,0,0,0-5.681,2.877Zm731.3,10.915c-1.216-1.08-1.052-2.973-1.333-4.575-.681-3.866-4.467-6.576-8.331-7.271a15.649,15.649,0,0,0-1.768-.213l-10.276-17.8c1.773-1.56,3.659-3.013,5.447-4.557l20.272,35.112-.323.023a4.932,4.932,0,0,1-3.688-.721Zm-12.529-37.96a56.5,56.5,0,0,0,4.789-5.693l23.136,40.072a12.162,12.162,0,0,1-.336,3.484l-5.5.4ZM1525.1,719.055a45.246,45.246,0,0,0,7.724,1.294q.57.042,1.14.069l40.8,70.665-.2.047a57.513,57.513,0,0,0-6.521,2.3ZM1664.849,793.1l-37.186-64.409q4.377.477,8.729,1.128l35.13,60.847a9.2,9.2,0,0,1-5.617,2.437q-.24.013-.484.013Q1665.137,793.117,1664.849,793.1ZM316.788,762.191q3.562-.877,7.165-1.581l16.112,27.907q-3.518.866-7.008,1.854Zm1222.932-41.819c1.6-.08,3.192-.2,4.787-.321.994-.075,1.988-.15,2.98-.216l40.379,69.938c-2.593.144-5.22.237-7.8.487ZM704.914,786.445a22.769,22.769,0,0,0,3.017-.326,18.056,18.056,0,0,0-1.121,3.609Zm848.236-66.811a37.967,37.967,0,0,1,6.225.512c.824.143,1.64.319,2.45.521l38.621,66.893a27.781,27.781,0,0,1-7.069,1.747ZM996.779,787.971l-4.578-7.929a15.435,15.435,0,0,1,3.2-7.391q.176-.227.357-.448l8.363,14.485c-1.45.248-2.894.577-4.32.905a6.937,6.937,0,0,1-2.352.411Q997.111,788,996.779,787.971ZM328.54,758.546a14.256,14.256,0,0,0-6.125-10.608l-.276-.478a72.534,72.534,0,0,0,9.117,1.8l21.135,36.607q-3.629.667-7.234,1.46Zm687.91-8.5a56.524,56.524,0,0,0,3.731-7.53l22.732,39.372a9.789,9.789,0,0,1-5.067,5.217Zm626.327-19.171q4.59.825,9.143,1.845l27.13,46.99c-.41.628-.789,1.264-1.135,1.893-.9,1.643-1.867,3.39-2.956,5.013Zm-73.877-7.96c2.134.756,4.268,1.519,6.443,2.128q1.655.463,3.329.809l30.512,52.848a2.218,2.218,0,0,0-2.741-.147,9.123,9.123,0,0,1-1.237,6.1q-.221.192-.446.374ZM337.35,749.8a72.565,72.565,0,0,0,8.037-.07l19.742,34.195q-3.747.454-7.476,1.042Zm453.83,34.3c-1.5-.022-3.047-.062-4.584-.179L767.24,750.4a16.382,16.382,0,0,1,2.1-5.289,19.486,19.486,0,0,1,1.638-2.232l23.766,41.164c-.837.054-1.678.072-2.506.072C791.881,784.111,791.528,784.107,791.18,784.1ZM345.769,740.386a11.823,11.823,0,0,1,2.348-3.645,16.148,16.148,0,0,1,2.429-2.073l27.761,48.083q-3.875.224-7.737.591ZM774.519,739c.583-.645,1.148-1.3,1.669-2a12.99,12.99,0,0,0,2.361-5.013l26.28,45.518a8.447,8.447,0,0,1-1.559,3.066,8.273,8.273,0,0,1-3.356,2.412Zm-.093,40.275a22.5,22.5,0,0,1-4.328-8.643,75.637,75.637,0,0,1-2.718-9.988l12.767,22.113A13.37,13.37,0,0,1,774.426,779.279Zm299.973-.867-8.307-14.388c1.576-4.647,1.029-10.131-3.231-12.071a7.466,7.466,0,0,0-4.061-.558l-14.038-24.315a58.1,58.1,0,0,1,6.73-2.336l32.943,57.059Zm510.615-51.59c2.77.291,5.563.432,8.366.5l29.068,50.347a6.592,6.592,0,0,0-2.913,1.376c-.978.811-1.826,1.951-2.851,2.632ZM548.065,706.775a28.367,28.367,0,0,1,8.178.173l19.381,33.569q-.651.237-1.312.448l1.725.268,17.393,30.126a25.77,25.77,0,0,0-5.354,4.717Zm517.165,68.539a5.024,5.024,0,0,1-2.164-1.157c-1.233-1.327-.667-3.2.262-4.911l3.892,6.741Zm593.4-40.984q4.851,1.247,9.645,2.715l10.381,17.981-8.564-1.251c2.094,4.124,7.053,5.3,11.654,6.6l6.948,12.034a10.36,10.36,0,0,0-6.256,3.155ZM582.386,742.22l8.873,1.379,13.657,23.654c-.38.041-.756.085-1.127.136a25.726,25.726,0,0,0-5.929,1.632Zm193.521-24.814a15.155,15.155,0,0,0,.4-1.656c.935-5.408-3.135-9.795-8.366-12.135l-11.287-19.55c2.541-.227,5.079-.458,7.557-.9l44.877,77.73a10.228,10.228,0,0,0-2.377,3.241,14.049,14.049,0,0,0-1.089,4.744Zm914.852,48.571a8.886,8.886,0,0,1,.844,1.463Zm-984.911-1.915-25.159-43.577,9.039,1.663,22.208,38.466a29.328,29.328,0,0,0,.362,6.772Q709.1,765.667,705.848,764.063Zm181.744,2.787-6.1-10.566a12.07,12.07,0,0,1,.156-1.3,2.99,2.99,0,0,1,.77-1.823,3.275,3.275,0,0,1,2.364-.536c.9.063,1.807.083,2.706.062l7.572,13.115a10.175,10.175,0,0,1-3.938,1.5c-.241.021-.482.031-.722.031A8.421,8.421,0,0,1,887.592,766.85ZM597.631,744.625a22.414,22.414,0,0,0,6.949-.3c.269-.075.537-.164.8-.265l10.769,18.653a10.841,10.841,0,0,1-.9,1.234,8.7,8.7,0,0,1-4.952,2.62Zm40.887,20.355-1.784-.628L615.746,728l7.42-1.136,22.213,38.474a3.636,3.636,0,0,1-1.469.533c-.341.033-.683.05-1.024.05A10.624,10.624,0,0,1,638.518,764.979ZM892.9,752.041a29.069,29.069,0,0,0,6.729-2.338l6.234,10.8a52.1,52.1,0,0,0-5.022,1.69,15.216,15.216,0,0,0-1.59.849Zm130.017-14.8c2.109-.913,4.239-1.919,6.375-2.95l14.115,24.447-6.111,3.407ZM623.38,759.651a6.233,6.233,0,0,0-3.531-.544L609.4,741a5.918,5.918,0,0,0,1.115-3.272c.06-2.818-1.851-6.1.09-8.147q.094-.079.192-.154L629.481,761.8Zm73.525.263a35.2,35.2,0,0,0-9.03-2.981l-5.371-9.3a12.5,12.5,0,0,1,1.136-1.407,20.918,20.918,0,0,0,3.474-4.6l10.82,18.741Q697.421,760.139,696.905,759.914Zm207.271-12.337a9.158,9.158,0,0,1,8.166.151l4.563,7.9a18.978,18.978,0,0,1-6.19,3.271ZM711.7,726.191l9.038,1.663,6.5,11.26c.932,3.5,3.788,6.416,5.332,9.8,1.493,3.271.559,8.218-2.282,9.472Zm57.448-44.5c2.175-.986,4.068-2.257,6.18-3.287l44.684,77.4-.711.2a40.2,40.2,0,0,0-6.007,2.153Zm915.824,74.254-9.579-16.592q4.964,1.706,9.851,3.652.208.068.415.139l8.135,14.09ZM1033.806,732.1c2.139-1.03,4.271-2.032,6.381-2.937l13.737,23.794c-.854.406-1.687.853-2.485,1.3l-3.663,2.042Zm-337.612-8.762L705.23,725l16.634,28.811a5.82,5.82,0,0,0-1.225-.664,5.941,5.941,0,0,0-6.225,1.75Zm83.966-46.565a45.644,45.644,0,0,1,7.687-.678l44.069,76.33c-2.3.687-4.618,1.336-6.934,1.982ZM628.476,726.05l.432-.066a6.02,6.02,0,0,1,2.9.032,5.751,5.751,0,0,1,2.925,3.6,50.784,50.784,0,0,1,3.322,12.713c2.573,1.077,6.052,1.551,9.2,2.248l2.384,4.129a54.147,54.147,0,0,0-5.256,4.888Zm165.056-50.116,7.828-.429,42.1,72.92c-2.186.9-4.409,1.714-6.655,2.462Zm13.43-.736,7.83-.429,39.46,68.346c-2.06,1.115-4.123,2.22-6.207,3.24ZM647.646,735.254c.257-2.717,1.743-5.37,4.281-6.242l.163-.054,7.652,13.254a54.121,54.121,0,0,0-6.054,3.506Zm450.383-11.914a53.553,53.553,0,0,1,8.633.962l11.514,19.943a52.76,52.76,0,0,0-7.42,1.14Zm15.881,3.5c4.918,2.671,8.921,7.346,9.274,12.868a4.248,4.248,0,0,1-.365,2.563ZM820.393,674.461l7.831-.429,36.728,63.614c-2.121.938-4.211,1.995-6.292,3.095ZM656.927,727.327a2.354,2.354,0,0,0,.484-.724c.768-1.788-.968-3.713-.884-5.656.075-1.713,1.31-2.7,2.953-3.187l11.721,20.3a54.118,54.118,0,0,0-6.849,2.126ZM563.29,709.144c4.128,1.929,8,4.652,12,6.793L586.008,734.5a34.374,34.374,0,0,1-5.8,3.95Zm101.9,8.489,9.038,1.663L684.2,736.58a54.09,54.09,0,0,0-7.788.5Zm168.64-43.908,7.828-.429,35.153,60.887a35.38,35.38,0,0,0-7.139,1.624Zm13.431-.736,7.83-.429L889.865,732.8a9.453,9.453,0,0,1-1.445.544,22.066,22.066,0,0,1-5.955.63ZM582.768,718.881a17.763,17.763,0,0,0,3.928.418,9.749,9.749,0,0,1,3.621.29,3.578,3.578,0,0,1,1.689,1.3l.3.521c1.188,2.5-.153,6.574-2.228,9.033q-.188.222-.38.441Zm277.92-46.628,7.831-.429,22.773,39.444-2.976.556c-1.7,2.239-.248,5.493,1.607,7.609s4.231,4.177,4.434,6.985a5.308,5.308,0,0,1-.682,2.972Zm307.124,51.955-6.554-11.352a17.911,17.911,0,0,1,2.5-2.79q1.281-1.2,2.614-2.349l12.135,21.019Zm-638.825-6.5a28.469,28.469,0,0,1,3.539-3.837l2.38,4.122Zm641.328-13.164q2.8-2.11,5.788-3.967l5.563,9.636c-2.457.664-4.769,1.838-5.409,4.176q-.044.159-.075.317ZM874.12,671.516q3.918-.214,7.841-.408L903.8,708.932l-7.29,1.361ZM1180.451,698.1a36.9,36.9,0,0,1,6.678-2.423l7.228,12.519a58.538,58.538,0,0,1-7.416,1.145Zm162.632-6.312a79.046,79.046,0,0,1,9.96,3.263l5.052,8.751c-1.542,1.793-3.653,3.529-5.04,5.26ZM887.6,670.87c2.655-.1,5.312-.166,7.966-.195L916.307,706.6l-7.292,1.362ZM671.7,680.913q3.385-1.191,6.86-2.106l15.017,26.011a10.427,10.427,0,0,1-6.171,2.436q-.245.01-.489.017Zm-79.4,25.71a30.291,30.291,0,0,1-3.713-1.671l-6.949-12.037a18.7,18.7,0,0,1,7.958-.209l7.86,13.614a5.885,5.885,0,0,1-5.156.3Zm84.875-.675c-1.844-.451-3.942-1.11-4.666-2.865a7.74,7.74,0,0,1-.091-3.678,14.815,14.815,0,0,0-9.459-14.878q1.986-.948,4.015-1.8l13.913,24.1A30.822,30.822,0,0,1,677.17,705.947Zm515.257-11.1c4.3-.174,8.1,1.162,9.02,5.749a5.148,5.148,0,0,1-2.4,5.719Zm-620.921,4.532a18.641,18.641,0,0,1,5.421-4.6l4.963,8.6a15.591,15.591,0,0,0-5.214.909,19.948,19.948,0,0,1-2.017.559Zm464.183,4.8a4.649,4.649,0,0,1-2.459-.96c-1.654-1.569-.283-4.393-.9-6.59-.785-2.817-4.3-3.546-7.282-3.689l-5.626-9.745a53.5,53.5,0,0,1,6.86-2.11l13.637,23.62h-.062A16.766,16.766,0,0,1,1035.689,704.18Zm-4.264-24.2c2.411-.449,4.943-.824,7.457-1.077l9.387,16.259a16.5,16.5,0,0,0-1.144,1.774c-1.373,2.369.292,4.98-2.095,6.608ZM739.37,702.125l-2.59-4.485a10.54,10.54,0,0,1,4.566-6.083l6.287,10.889c-1.026.058-2.048.1-3.065.1A29.485,29.485,0,0,1,739.37,702.125Zm6.848-12.139a10.591,10.591,0,0,1,1.163-.012l-1.316-.253-2.039-3.532a37.476,37.476,0,0,1,7.177-1.562l9.936,17.21c-.267-.023-.533-.04-.8-.051a59.445,59.445,0,0,0-7.175.236Zm-149.031,5.869a5.86,5.86,0,0,1,1.43.593,4.5,4.5,0,0,1,1.148,3.7c0,.057,0,.114,0,.172Zm86.47-18.228c2.659-.521,5.718-.883,8.209.226l10.049,17.4a6.165,6.165,0,0,0-4.275,2.655q-.537,1.081-1,2.2ZM1289.744,695.4l-3.226-5.587q3.85-.312,7.739-.588l5.483,9.5A20.862,20.862,0,0,1,1289.744,695.4Zm-388.395-24.72c2.751.038,5.5.131,8.248.295l10.251,17.755c-2.56,2.2-3.18,5.52-2.86,9.039Zm-192.579,24.6c-.372-.032-.745-.064-1.116-.094l-5.253-9.1a20.62,20.62,0,0,0,6.679-2.424l6.709,11.62a14.609,14.609,0,0,1-2.818.239C711.616,695.53,710.193,695.408,708.771,695.286Zm-98.411-.615-2.3-3.99a4.76,4.76,0,0,1,4.747-3.169l-.3.6a12.354,12.354,0,0,0,2.912,1.328l2.622,4.542a6.566,6.566,0,0,1-2.148.73,19.3,19.3,0,0,1-5.533-.044Zm434.105-16.109a33.3,33.3,0,0,1,8.533.791l5.416,9.381a13.77,13.77,0,0,1-4.727,3.968c-.291.163-.561.3-.812.427Zm-27.091,14.145a5.513,5.513,0,0,1-2.074-.329,3.713,3.713,0,0,1-1.393-4.927,8.7,8.7,0,0,1,1.243-1.651l4.019,6.962Zm130.471-3.084-4.335-7.508c2.465-.42,4.942-.791,7.421-1.139l6.784,11.75q-.168.009-.337.008C1154.247,692.735,1151.036,690.606,1147.845,689.624Zm-434.4-8.4c.85-.482,1.674-.938,2.464-1.334q1.889-.939,3.818-1.775l4.061,7.033-.148.1c-2.133,1.777-2.032,5.117-3.593,7.407Zm442.84-.977.326-.044,4.2-.561c.714-.1,1.765-.269,2.957-.43l4.024,6.97a18.842,18.842,0,0,0-2.908,1.282,14.423,14.423,0,0,0-2.75,2.911ZM1140.82,688.6a46.683,46.683,0,0,1-8.381-1.666l-1.238-2.144c2.344-.65,4.712-1.209,7.094-1.7l3.2,5.551Q1141.16,688.621,1140.82,688.6Zm-401.56-.192.2-.123.1.182Zm176.409-16.93c3.092.392,6.152,1.15,8.545,3.084,3.024,2.442,4.342,7.391,1.723,10.263a7.477,7.477,0,0,1-1.767,1.377Zm253.685,7.4c3.015.2,5.062,1.354,2.886,5Zm-444.921-2.624q3.383-1.218,6.852-2.124l4.688,8.12q-3.668.606-7.319,1.314Zm11.961-3.283q3.7-.713,7.458-1.075l4.939,8.555q-3.764.435-7.514.978Zm13.039-1.417a79.987,79.987,0,0,1,8.195.205l3.979,6.892a23.34,23.34,0,0,1-5.277,1.036q-1.046.091-2.091.19Zm14.388.922q1.566.244,3.128.55a4.683,4.683,0,0,1-1.082,2.995Z" transform="translate(-281.012 -670.675)" fill="#355963" opacity="0.1"/>
</svg>
