<svg xmlns="http://www.w3.org/2000/svg" width="36" height="35.999" viewBox="0 0 36 35.999">
  <path id="Subtraction_6" data-name="Subtraction 6" d="M4862-904h-16a10.011,10.011,0,0,1-10-10v-16a10.011,10.011,0,0,1,10-10h16a10.011,10.011,0,0,1,10,10v16A10.011,10.011,0,0,1,4862-904Zm-8-27.518a6.661,6.661,0,0,0-6.654,6.654c0,3.767,4.139,9.278,5.918,11.473a.94.94,0,0,0,.736.353.938.938,0,0,0,.735-.353c1.779-2.195,5.918-7.706,5.918-11.473A6.661,6.661,0,0,0,4854-931.519Zm0,9.03a2.379,2.379,0,0,1-2.377-2.376,2.38,2.38,0,0,1,2.377-2.377,2.379,2.379,0,0,1,2.376,2.377A2.379,2.379,0,0,1,4854-922.489Z" transform="translate(-4836 940)" fill="#051e23"/>
</svg>
