<svg xmlns="http://www.w3.org/2000/svg" xmlns:xlink="http://www.w3.org/1999/xlink" width="121" height="112" viewBox="0 0 121 112">
  <defs>
    <clipPath id="clip-path">
      <rect id="Rectangle_27" data-name="Rectangle 27" width="43" height="44" rx="21.5" transform="translate(0.021)" fill="#fff" opacity="0.7"/>
    </clipPath>
    <clipPath id="clip-path-2">
      <rect id="Rectangle_52" data-name="Rectangle 52" width="43" height="44" rx="21.5" transform="translate(-0.386 -0.027)" fill="#fff" opacity="0.7"/>
    </clipPath>
  </defs>
  <g id="Group_34" data-name="Group 34" transform="translate(-185 -79)">
    <path id="Subtraction_1" data-name="Subtraction 1" d="M27,55h-.009A26.976,26.976,0,0,1,0,28V27A26.977,26.977,0,0,1,27,0Z" transform="translate(185 79)" fill="#fff"/>
    <path id="Subtraction_2" data-name="Subtraction 2" d="M27,55h-.009A26.976,26.976,0,0,1,0,28V27A26.977,26.977,0,0,1,27,0Z" transform="translate(306 134) rotate(180)" fill="#5ac0d1"/>
    <path id="Subtraction_3" data-name="Subtraction 3" d="M27,55h-.009A26.976,26.976,0,0,1,0,28V27A26.977,26.977,0,0,1,27,0Z" transform="translate(306 191) rotate(180)" fill="#5ac0d1"/>
    <path id="Subtraction_4" data-name="Subtraction 4" d="M27,55h-.009A26.976,26.976,0,0,1,0,28V27A26.977,26.977,0,0,1,27,0Z" transform="translate(267 191) rotate(180)" fill="#fff"/>
    <g id="Mask_Group_6" data-name="Mask Group 6" transform="translate(223.98 79)" clip-path="url(#clip-path)">
      <g id="Group_31" data-name="Group 31" transform="translate(-16.148 21.151) rotate(-45)">
        <rect id="Rectangle_28" data-name="Rectangle 28" width="2.283" height="57.081" transform="translate(27.399 0)" fill="#fff"/>
        <rect id="Rectangle_37" data-name="Rectangle 37" width="2.283" height="57.081" transform="translate(45.665 0)" fill="#fff"/>
        <rect id="Rectangle_31" data-name="Rectangle 31" width="2.283" height="57.081" transform="translate(18.266 0)" fill="#fff"/>
        <rect id="Rectangle_39" data-name="Rectangle 39" width="2.283" height="57.081" transform="translate(36.532 0)" fill="#fff"/>
        <rect id="Rectangle_33" data-name="Rectangle 33" width="2.283" height="57.081" transform="translate(9.133 0)" fill="#fff"/>
        <rect id="Rectangle_35" data-name="Rectangle 35" width="2.283" height="57.081" fill="#fff"/>
        <rect id="Rectangle_29" data-name="Rectangle 29" width="2.283" height="57.081" transform="translate(31.966 0)" fill="#fff"/>
        <rect id="Rectangle_36" data-name="Rectangle 36" width="2.283" height="57.081" transform="translate(50.232 0)" fill="#fff"/>
        <rect id="Rectangle_30" data-name="Rectangle 30" width="2.283" height="57.081" transform="translate(22.833 0)" fill="#fff"/>
        <rect id="Rectangle_38" data-name="Rectangle 38" width="2.283" height="57.081" transform="translate(41.099 0)" fill="#fff"/>
        <rect id="Rectangle_32" data-name="Rectangle 32" width="2.283" height="57.081" transform="translate(13.7 0)" fill="#fff"/>
        <rect id="Rectangle_34" data-name="Rectangle 34" width="2.283" height="57.081" transform="translate(4.567 0)" fill="#fff"/>
      </g>
    </g>
    <g id="Mask_Group_7" data-name="Mask Group 7" transform="translate(187.386 145.027)" clip-path="url(#clip-path-2)">
      <g id="Group_32" data-name="Group 32" transform="translate(-16.086 21.338) rotate(-45)">
        <rect id="Rectangle_40" data-name="Rectangle 40" width="2.283" height="57.081" transform="translate(27.399 0)" fill="#fff"/>
        <rect id="Rectangle_41" data-name="Rectangle 41" width="2.283" height="57.081" transform="translate(45.665 0)" fill="#fff"/>
        <rect id="Rectangle_42" data-name="Rectangle 42" width="2.283" height="57.081" transform="translate(18.266 0)" fill="#fff"/>
        <rect id="Rectangle_43" data-name="Rectangle 43" width="2.283" height="57.081" transform="translate(36.532 0)" fill="#fff"/>
        <rect id="Rectangle_44" data-name="Rectangle 44" width="2.283" height="57.081" transform="translate(9.133 0)" fill="#fff"/>
        <rect id="Rectangle_45" data-name="Rectangle 45" width="2.283" height="57.081" fill="#fff"/>
        <rect id="Rectangle_46" data-name="Rectangle 46" width="2.283" height="57.081" transform="translate(31.966 0)" fill="#fff"/>
        <rect id="Rectangle_47" data-name="Rectangle 47" width="2.283" height="57.081" transform="translate(50.232 0)" fill="#fff"/>
        <rect id="Rectangle_48" data-name="Rectangle 48" width="2.283" height="57.081" transform="translate(22.833 0)" fill="#fff"/>
        <rect id="Rectangle_49" data-name="Rectangle 49" width="2.283" height="57.081" transform="translate(41.099 0)" fill="#fff"/>
        <rect id="Rectangle_50" data-name="Rectangle 50" width="2.283" height="57.081" transform="translate(13.7 0)" fill="#fff"/>
        <rect id="Rectangle_51" data-name="Rectangle 51" width="2.283" height="57.081" transform="translate(4.567 0)" fill="#fff"/>
      </g>
    </g>
  </g>
</svg>
