<svg xmlns="http://www.w3.org/2000/svg" xmlns:xlink="http://www.w3.org/1999/xlink" width="26" height="26" viewBox="0 0 26 26">
  <defs>
    <clipPath id="clip-path">
      <rect id="Rectangle_128" data-name="Rectangle 128" width="26" height="26" fill="#fff" stroke="#707070" stroke-width="1"/>
    </clipPath>
  </defs>
  <g id="Mask_Group_249" data-name="Mask Group 249" clip-path="url(#clip-path)">
    <g id="surface1" transform="translate(-4.383 -4.36)">
      <path id="Path_14793" data-name="Path 14793" d="M27.821,22.076l-3.647-.418a2.884,2.884,0,0,0-2.375.826l-2.675,2.675a21.689,21.689,0,0,1-9.539-9.539l2.675-2.675a2.884,2.884,0,0,0,.826-2.375l-.418-3.647A2.894,2.894,0,0,0,9.788,4.36H7.283a2.867,2.867,0,0,0-2.9,2.991,24.586,24.586,0,0,0,23,23,2.867,2.867,0,0,0,2.991-2.9V24.954A2.894,2.894,0,0,0,27.821,22.076Z" fill="#fff"/>
    </g>
  </g>
</svg>
