<svg xmlns="http://www.w3.org/2000/svg" width="36" height="36" viewBox="0 0 36 36">
  <path id="Subtraction_6" data-name="Subtraction 6" d="M-905-2216h-16a10.011,10.011,0,0,1-10-10v-16a10.011,10.011,0,0,1,10-10h16a10.012,10.012,0,0,1,10,10v16A10.012,10.012,0,0,1-905-2216Zm-20.376-22.606a.624.624,0,0,0-.624.624v12.182a2.6,2.6,0,0,0,2.6,2.6h20.8a2.6,2.6,0,0,0,2.6-2.6v-12.269a.622.622,0,0,0-.622-.62h-.008a.617.617,0,0,0-.325.1L-912.2-2231.5a1.5,1.5,0,0,1-.8.231,1.532,1.532,0,0,1-.806-.231l-11.248-7.008A.613.613,0,0,0-925.377-2238.606ZM-923.4-2244a2.609,2.609,0,0,0-2.1,1.077.916.916,0,0,0-.15.719.968.968,0,0,0,.435.632l11.416,7.114a1.525,1.525,0,0,0,.8.229,1.524,1.524,0,0,0,.8-.229l11.365-7.175a.961.961,0,0,0,.435-.655.937.937,0,0,0-.192-.742,2.566,2.566,0,0,0-2.011-.97Z" transform="translate(931 2252)" fill="#fff"/>
</svg>
