<svg xmlns="http://www.w3.org/2000/svg" xmlns:xlink="http://www.w3.org/1999/xlink" width="36" height="36" viewBox="0 0 36 36">
  <defs>
    <clipPath id="clip-path">
      <rect id="Rectangle_7" data-name="Rectangle 7" width="36" height="36" rx="10" transform="translate(1683 5593)" fill="#fff"/>
    </clipPath>
  </defs>
  <g id="Mask_Group_13" data-name="Mask Group 13" transform="translate(-1683 -5593)" clip-path="url(#clip-path)">
    <g id="surface1" transform="translate(1680.545 5590.545)">
      <path id="Path_15" data-name="Path 15" d="M13.091,2.455A10.645,10.645,0,0,0,2.455,13.091V27.818A10.645,10.645,0,0,0,13.091,38.455H27.818A10.645,10.645,0,0,0,38.455,27.818V13.091A10.645,10.645,0,0,0,27.818,2.455ZM30.273,9a1.636,1.636,0,1,1-1.636,1.636A1.639,1.639,0,0,1,30.273,9Zm-9.818,2.455a9,9,0,1,1-9,9A9.005,9.005,0,0,1,20.455,11.455Zm0,1.636a7.364,7.364,0,1,0,7.364,7.364A7.374,7.374,0,0,0,20.455,13.091Z" fill="#fff"/>
    </g>
  </g>
</svg>
